<svg xmlns="http://www.w3.org/2000/svg" viewBox="0 0 599 321" width="599" height="321"><path d="M325.25 140.87C325.25 310.08 409 318.41 409 318.41 437.6 323.39 474.43 315.6 511.02 307.43 562.61 295.83 581.57 265.4 589.19 239.02 592.76 226.72 598.9 114.1 598.9 114.1 602.39 -16.034 428.12 0.7 428.12 0.7 401.86 0.856 379.64 20.002 360.68 40.938 325.09 61.019 277.69 61.408 242.11 41.328 223.15 20.391 197.04 0.856 170.78 0.7 170.78 0.7 -3.45 -16.034 0.05 114.1 0.05 114.1 6.19 226.64 9.76 239.02 17.38 265.4 36.34 295.83 87.93 307.43 124.52 315.6 161.35 323.46 189.95 318.41 189.95 318.41 273.7 310.08 273.7 140.87 290.41 135.11 308.51 135.11 325.22 140.87ZM533.29 210.77C532.21 216.37 530.57 223.22 506.1 227.27 474.48 232.56 447.05 234.43 433.45 234.19 425.22 233.88 414.1 226.64 413.02 213.8 411.7 179.63 406.02 156.28 411.62 118.69 414.65 103.05 427.94 94.252 439.28 94.564 461.34 95.653 513.79 104.92 513.79 104.92 525.91 106.78 537.49 117.91 537.8 125.54 538.11 133.17 538.65 176.13 533.29 210.77ZM61.28 125.62C61.59 117.91 73.16 106.86 85.29 104.99 85.29 104.99 137.73 95.732 159.8 94.641 171.14 94.331 184.35 103.12 187.46 118.77 193.05 156.36 187.38 179.71 186.06 213.88 184.97 226.72 173.94 233.96 165.63 234.27 152.03 234.5 124.6 232.64 92.98 227.34 68.58 223.22 66.95 216.37 65.78 210.84 60.42 176.21 60.97 133.32 61.28 125.7Z" fill-rule="evenodd"></path></svg>